<svg width="29" height="33" viewBox="0 0 29 33" fill="none" xmlns="http://www.w3.org/2000/svg">
<path d="M28.434 24.307C28.66 23.9155 28.8004 23.4745 28.8004 23.0784V9.33078C28.8004 8.93473 28.6602 8.49379 28.4341 8.10236L14.4004 16.2047L28.434 24.307Z" fill="#00599C"/>
<path d="M15.6459 32.1123L27.5518 25.2385C27.8947 25.0405 28.2065 24.6985 28.4324 24.307L14.3988 16.2047L0.365234 24.3071C0.591211 24.6985 0.903023 25.0406 1.24589 25.2385L13.1518 32.1123C13.8376 32.5083 14.9601 32.5083 15.6459 32.1123Z" fill="#004482"/>
<path d="M28.4337 8.10231C28.2076 7.71078 27.8958 7.36885 27.5529 7.17082L15.6471 0.297035C14.9612 -0.0990118 13.8388 -0.0990118 13.1529 0.297035L1.24706 7.17082C0.561129 7.56678 0 8.53882 0 9.33082V23.0785C0 23.4745 0.140329 23.9156 0.3664 24.307L14.4 16.2047L28.4337 8.10231Z" fill="#659AD2"/>
<path d="M14.3988 25.8047C9.10537 25.8047 4.79883 21.4981 4.79883 16.2047C4.79883 10.9112 9.10537 6.60468 14.3988 6.60468C17.8145 6.60468 21.0001 8.44279 22.7123 11.4017L18.5577 13.8058C17.7008 12.3248 16.1071 11.4047 14.3988 11.4047C11.7521 11.4047 9.59883 13.5579 9.59883 16.2047C9.59883 18.8514 11.7521 21.0047 14.3988 21.0047C16.1073 21.0047 17.7009 20.0846 18.558 18.6033L22.7126 21.0073C21.0004 23.9665 17.8147 25.8047 14.3988 25.8047Z" fill="white"/>
<path d="M23.9988 15.6713H22.9321V14.6047H21.8656V15.6713H20.7988V16.7379H21.8656V17.8047H22.9321V16.7379H23.9988V15.6713Z" fill="white"/>
<path d="M27.9988 15.6713H26.9321V14.6047H25.8656V15.6713H24.7988V16.7379H25.8656V17.8047H26.9321V16.7379H27.9988V15.6713Z" fill="white"/>
</svg>
