<svg width="41" height="46" viewBox="0 0 41 46" fill="none" xmlns="http://www.w3.org/2000/svg">
<path d="M40.198 13.2833C40.1976 12.5236 40.0352 11.8523 39.7066 11.2763C39.3838 10.7096 38.9005 10.2347 38.2521 9.85927C32.9004 6.77344 27.5435 3.69704 22.1935 0.608059C20.7512 -0.224624 19.3527 -0.19411 17.9211 0.650527C15.7909 1.90663 5.12602 8.0168 1.94801 9.85754C0.639219 10.6154 0.00235932 11.7749 0.00204475 13.2819C0 19.4877 0.00204475 25.6935 0 31.8993C0 32.6423 0.155872 33.3007 0.469977 33.868C0.792889 34.4517 1.283 34.9396 1.94628 35.3236C5.12445 37.1643 15.7908 43.274 17.9205 44.5306C19.3527 45.3757 20.7512 45.4059 22.194 44.5731C27.5441 41.4839 32.9014 38.4075 38.2539 35.3217C38.9172 34.9379 39.4073 34.4497 39.7302 33.8665C40.0438 33.299 40.2 32.6407 40.2 31.8975C40.2 31.8975 40.2 19.4892 40.198 13.2833Z" fill="#A179DC"/>
<path d="M20.1613 22.53L0.469727 33.868C0.792639 34.4517 1.28275 34.9396 1.94603 35.3235C5.1242 37.1643 15.7905 43.274 17.9202 44.5305C19.3525 45.3756 20.7509 45.4059 22.1937 44.573C27.5439 41.4839 32.9011 38.4075 38.2536 35.3216C38.9169 34.9379 39.407 34.4496 39.7299 33.8664L20.1613 22.53Z" fill="#280068"/>
<path d="M40.1981 13.2834C40.1978 12.5237 40.0353 11.8524 39.7067 11.2764L20.1616 22.5303L39.7303 33.8666C40.0439 33.2991 40.1998 32.6408 40.2001 31.8976C40.2001 31.8976 40.2001 19.4893 40.1981 13.2834" fill="#390091"/>
<path d="M31.7555 18.2917V20.411H33.8748V18.2917H34.9344V20.411H37.0537V21.4707H34.9344V23.5898H37.0537V24.6495H34.9344V26.7688H33.8748V24.6495H31.7555V26.7688H30.6958V24.6495H28.5767V23.5898H30.6958V21.4707H28.5767V20.411H30.6958V18.2917H31.7555ZM33.8748 21.4705H31.7555V23.5898H33.8748V21.4705Z" fill="white"/>
<path d="M20.2047 7.64835C25.7325 7.64835 30.5585 10.6504 33.1436 15.1126L33.1184 15.0697L26.6145 18.8144C25.3333 16.6449 22.9843 15.1807 20.2895 15.1505L20.2046 15.15C16.0954 15.15 12.7641 18.4814 12.7641 22.5906C12.7627 23.8857 13.1011 25.1586 13.7454 26.2821C15.0279 28.5211 17.439 30.0312 20.2047 30.0312C22.9876 30.0312 25.4124 28.5019 26.6883 26.239L26.6573 26.2933L33.1513 30.0553C30.5946 34.4798 25.8345 37.4725 20.3711 37.5321L20.2047 37.5331C14.6595 37.5331 9.81979 34.5125 7.24121 30.0267C5.98243 27.8367 5.26221 25.298 5.26221 22.5906C5.26221 14.3383 11.952 7.64819 20.2046 7.64819L20.2047 7.64835Z" fill="white"/>
</svg>
