<svg width="40" height="40" viewBox="0 0 40 40" fill="none" xmlns="http://www.w3.org/2000/svg">
<g clip-path="url(#clip0_1042_785)">
<path d="M7.08334 3.22406e-06H32.9167C33.8471 -0.000896212 34.7686 0.186404 35.6284 0.551183C36.4882 0.915963 37.2694 1.45106 37.9273 2.12585C38.5852 2.80065 39.1069 3.60189 39.4626 4.48372C39.8183 5.36555 40.0009 6.31066 40 7.26496V32.735C40.0009 33.6893 39.8183 34.6345 39.4626 35.5163C39.1069 36.3981 38.5852 37.1994 37.9273 37.8741C37.2694 38.5489 36.4882 39.084 35.6284 39.4488C34.7686 39.8136 33.8471 40.0009 32.9167 40H7.08334C6.15289 40.0009 5.23141 39.8136 4.37162 39.4488C3.51184 39.084 2.73063 38.5489 2.07271 37.8741C1.41478 37.1994 0.893064 36.3981 0.537404 35.5163C0.181743 34.6345 -0.000873806 33.6893 3.14346e-06 32.735V7.26496C-0.000873806 6.31066 0.181743 5.36555 0.537404 4.48372C0.893064 3.60189 1.41478 2.80065 2.07271 2.12585C2.73063 1.45106 3.51184 0.915963 4.37162 0.551183C5.23141 0.186404 6.15289 -0.000896212 7.08334 3.22406e-06V3.22406e-06Z" fill="white"/>
<path d="M27.8746 29.4146H27.7539V29.3471H28.0788V29.4146H27.9589V29.7515H27.8746V29.4146ZM28.5226 29.4322H28.5207L28.4011 29.7515H28.3464L28.2276 29.4322H28.2261V29.7515H28.1467V29.3472H28.2636L28.3738 29.6335L28.4836 29.3472H28.6001V29.7515H28.5226V29.4322H28.5226Z" fill="#E76F00"/>
<path d="M17.0718 21.1459C17.0718 21.1459 16.2322 21.6342 17.6694 21.7994C19.4105 21.998 20.3004 21.9695 22.2192 21.6064C22.2192 21.6064 22.7236 21.9227 23.4282 22.1967C19.1268 24.0401 13.6934 22.0899 17.0718 21.1459Z" fill="#5382A1"/>
<path d="M16.5459 18.7403C16.5459 18.7403 15.6041 19.4374 17.0424 19.5861C18.9023 19.778 20.3712 19.7937 22.9128 19.3043C22.9128 19.3043 23.2644 19.6607 23.8172 19.8556C18.6166 21.3763 12.8241 19.9755 16.5459 18.7403Z" fill="#5382A1"/>
<path d="M20.976 14.6595C22.0359 15.8797 20.6975 16.9778 20.6975 16.9778C20.6975 16.9778 23.3887 15.5886 22.1528 13.8489C20.9985 12.2265 20.1133 11.4205 24.9054 8.6412C24.9054 8.6412 17.3833 10.5199 20.976 14.6595Z" fill="#E76F00"/>
<path d="M26.6648 22.9252C26.6648 22.9252 27.2862 23.4372 25.9805 23.8333C23.4977 24.5854 15.6469 24.8125 13.466 23.8632C12.682 23.5222 14.1522 23.0489 14.6146 22.9496C15.0969 22.845 15.3726 22.8645 15.3726 22.8645C14.5007 22.2503 9.73712 24.0705 12.9529 24.5917C21.7228 26.014 28.9396 23.9513 26.6648 22.9252Z" fill="#5382A1"/>
<path d="M17.4754 16.2478C17.4754 16.2478 13.482 17.1963 16.0613 17.5407C17.1503 17.6865 19.3213 17.6535 21.3435 17.4841C22.9962 17.3447 24.6556 17.0483 24.6556 17.0483C24.6556 17.0483 24.0729 17.2979 23.6513 17.5857C19.596 18.6523 11.762 18.1561 14.0173 17.0652C15.9246 16.1432 17.4754 16.2478 17.4754 16.2478Z" fill="#5382A1"/>
<path d="M24.6395 20.252C28.7619 18.1099 26.8558 16.0513 25.5255 16.3287C25.1994 16.3965 25.054 16.4553 25.054 16.4553C25.054 16.4553 25.175 16.2657 25.4062 16.1836C28.0382 15.2583 30.0623 18.9127 24.5566 20.36C24.5566 20.3601 24.6204 20.303 24.6395 20.252Z" fill="#5382A1"/>
<path d="M22.1533 4.15344C22.1533 4.15344 24.4364 6.43724 19.988 9.94909C16.4208 12.7662 19.1746 14.3724 19.9865 16.2076C17.9043 14.329 16.3762 12.6752 17.4014 11.136C18.906 8.87656 23.0745 7.78112 22.1533 4.15344Z" fill="#E76F00"/>
<path d="M17.8798 26.0567C21.8368 26.31 27.9132 25.9162 28.0571 24.0439C28.0571 24.0439 27.7804 24.7537 24.7869 25.3173C21.4095 25.9529 17.244 25.8787 14.7734 25.4714C14.7735 25.4713 15.2792 25.89 17.8798 26.0567Z" fill="#5382A1"/>
<path d="M17.2326 33.2109C16.8593 33.5347 16.4651 33.7165 16.1113 33.7165C15.6063 33.7165 15.3334 33.4137 15.3334 32.928C15.3334 32.4026 15.6258 32.0185 16.7986 32.0185H17.2325V33.2109H17.2326ZM18.2626 34.3731V30.7758C18.2626 29.8568 17.7385 29.2504 16.4748 29.2504C15.737 29.2504 15.0908 29.4326 14.5656 29.6649L14.7172 30.3017C15.1307 30.1499 15.666 30.0086 16.1915 30.0086C16.9194 30.0086 17.2326 30.3017 17.2326 30.9077V31.3623H16.8693C15.1006 31.3623 14.3027 32.0489 14.3027 33.0794C14.3027 33.9688 14.8285 34.4743 15.8185 34.4743C16.4548 34.4743 16.9298 34.2116 17.3739 33.8271L17.4545 34.3731H18.2626V34.3731Z" fill="#E76F00"/>
<path d="M21.6999 34.3731H20.4152L18.8691 29.3416H19.991L20.9503 32.433L21.1636 33.3627C21.6489 32.0185 21.9922 30.6547 22.1639 29.3416H23.2552C22.9628 30.9984 22.4367 32.817 21.6999 34.3731Z" fill="#E76F00"/>
<path d="M26.6279 33.2109C26.2539 33.5347 25.859 33.7165 25.5052 33.7165C25.0011 33.7165 24.7275 33.4137 24.7275 32.928C24.7275 32.4026 25.0205 32.0185 26.1932 32.0185H26.6279V33.2109ZM27.6578 34.3731V30.7758C27.6578 29.8568 27.1324 29.2504 25.8701 29.2504C25.1319 29.2504 24.4854 29.4326 23.9604 29.6649L24.1118 30.3017C24.5255 30.1499 25.0618 30.0086 25.5868 30.0086C26.3143 30.0086 26.6279 30.3017 26.6279 30.9077V31.3623H26.264C24.4948 31.3623 23.6973 32.0489 23.6973 33.0794C23.6973 33.9688 24.2226 34.4743 25.2124 34.4743C25.8491 34.4743 26.324 34.2116 26.7688 33.8271L26.8497 34.3731H27.6578V34.3731Z" fill="#E76F00"/>
<path d="M13.1726 35.2276C12.879 35.6563 12.4047 35.9954 11.8855 36.1873L11.377 35.5889C11.7721 35.3861 12.1111 35.0586 12.2685 34.7535C12.4048 34.4822 12.4611 34.1326 12.4611 33.2964V27.5521H13.5555V33.2177C13.5554 34.3356 13.466 34.7872 13.1726 35.2276Z" fill="#E76F00"/>
</g>
<defs>
<clipPath id="clip0_1042_785">
<rect width="40" height="40" fill="white"/>
</clipPath>
</defs>
</svg>
