<svg width="28" height="28" viewBox="0 0 28 28" fill="none" xmlns="http://www.w3.org/2000/svg">
<path d="M13.5573 0C6.62393 4.94678e-07 7.05689 3.00671 7.05689 3.00671L7.06462 6.12164H13.6809V7.05689H4.43664C4.43664 7.05689 0 6.55373 0 13.5495C-4.94678e-07 20.5453 3.8724 20.2973 3.8724 20.2973H6.18347V17.0509C6.18347 17.0509 6.0589 13.1785 9.99404 13.1785C13.9292 13.1785 16.5563 13.1785 16.5563 13.1785C16.5563 13.1785 20.2431 13.2381 20.2431 9.6153C20.2431 5.99248 20.2431 3.62506 20.2431 3.62506C20.2431 3.62506 20.8029 0 13.5573 0ZM9.90902 2.09465C10.5673 2.09465 11.0993 2.6267 11.0993 3.28497C11.0993 3.94325 10.5673 4.47529 9.90902 4.47529C9.25074 4.47529 8.7187 3.94325 8.7187 3.28497C8.7187 2.6267 9.25074 2.09465 9.90902 2.09465Z" fill="url(#paint0_linear_1042_787)"/>
<path d="M13.7545 27.1693C20.6878 27.1693 20.2549 24.1625 20.2549 24.1625L20.2471 21.0476H13.6308V20.1124H22.8751C22.8751 20.1124 27.3118 20.6155 27.3118 13.6197C27.3118 6.62391 23.4394 6.872 23.4394 6.872H21.1283V10.1183C21.1283 10.1183 21.2529 13.9907 17.3177 13.9907C13.3826 13.9907 10.7555 13.9907 10.7555 13.9907C10.7555 13.9907 7.06862 13.9311 7.06862 17.554C7.06862 21.1768 7.06862 23.5442 7.06862 23.5442C7.06862 23.5442 6.50885 27.1693 13.7545 27.1693ZM17.4028 25.0746C16.7445 25.0746 16.2124 24.5426 16.2124 23.8843C16.2124 23.226 16.7445 22.694 17.4028 22.694C18.061 22.694 18.5931 23.226 18.5931 23.8843C18.5931 24.5426 18.061 25.0746 17.4028 25.0746Z" fill="url(#paint1_linear_1042_787)"/>
<defs>
<linearGradient id="paint0_linear_1042_787" x1="2.62468" y1="2.37483" x2="16.1294" y2="15.9247" gradientUnits="userSpaceOnUse">
<stop stop-color="#387EB8"/>
<stop offset="1" stop-color="#366994"/>
</linearGradient>
<linearGradient id="paint1_linear_1042_787" x1="10.9325" y1="10.9947" x2="25.4366" y2="24.8904" gradientUnits="userSpaceOnUse">
<stop stop-color="#FFE052"/>
<stop offset="1" stop-color="#FFC331"/>
</linearGradient>
</defs>
</svg>
