<svg width="80" height="24" viewBox="0 0 80 24" fill="none" xmlns="http://www.w3.org/2000/svg">
<path d="M16.9192 4.20084C16.8999 4.6037 17.116 4.71767 17.2264 4.72429C17.2886 4.73092 17.442 4.69381 17.5577 4.49238C17.7023 4.2406 18.642 1.75587 19.2865 1.75587C19.9311 1.75587 20.8708 4.2406 21.0153 4.49238C21.131 4.69381 21.2844 4.73092 21.3467 4.72429C21.4571 4.71767 21.6731 4.6037 21.6539 4.20084C21.6298 3.69727 21.6599 2.69013 20.8467 1.35169C20.1961 0.28094 19.5355 0.00441729 19.2865 0C19.0375 0.00441729 18.3769 0.28094 17.7264 1.35169C16.9132 2.69013 16.9433 3.69727 16.9192 4.20084Z" fill="white"/>
<path d="M14.9607 22.971C16.3071 22.2575 17.3237 21.3245 18.0106 20.172C18.2001 19.8593 18.3723 19.5281 18.5272 19.1783C18.6853 18.6375 18.6477 18.1875 18.4221 18.1125C18.0837 18.0375 17.7454 18.45 17.565 18.7542C17.1129 19.7315 16.4921 20.5471 15.7026 21.201C14.6035 22.1066 13.0374 22.5593 11.0042 22.5593C9.65785 22.5593 8.5588 22.3261 7.70704 21.8596C6.88276 21.3657 6.25081 20.6934 5.81119 19.8427C5.39905 18.9646 5.11055 17.9355 4.9457 16.7556C4.80832 15.5756 4.73963 14.2859 4.73963 12.8864V4.275C4.73963 1.515 3.08288 0 2.36855 0C1.65423 0 0 1.515 0 4.275V11.5692C0 13.4077 0.0824284 14.9582 0.247285 16.2205C0.412141 17.4553 0.728116 18.5118 1.19521 19.3899C1.6623 20.268 2.30799 21.0775 3.13227 21.8184C4.06646 22.6691 5.15177 23.2454 6.38819 23.5472C7.62462 23.8491 8.90226 24 10.2211 24C12.062 24 13.6419 23.657 14.9607 22.971Z" fill="white"/>
<path d="M74.3995 19.5099C73.5496 19.5099 72.7765 19.3641 72.0799 19.0724C71.3972 18.7669 70.8052 18.3571 70.3036 17.8433C69.8021 17.3155 69.412 16.7183 69.1334 16.0516C68.8687 15.371 68.7363 14.6488 68.7363 13.8849C68.7363 12.8571 68.9732 11.9196 69.4468 11.0724C69.9205 10.2113 70.5822 9.52381 71.4321 9.00992C72.2819 8.48214 73.278 8.21825 74.4204 8.21825C75.5627 8.21825 76.5449 8.48214 77.3669 9.00992C78.2028 9.52381 78.8506 10.2044 79.3103 11.0516C79.77 11.8988 79.9999 12.8085 79.9999 13.7808C79.9999 13.9474 79.9929 14.1071 79.979 14.2599C79.9651 14.3988 79.9512 14.5169 79.9372 14.6141H71.1813C71.2231 15.253 71.3972 15.8155 71.7037 16.3016C72.0242 16.7738 72.4282 17.1488 72.9158 17.4266C73.4034 17.6905 73.9258 17.8224 74.4831 17.8224C75.096 17.8224 75.6742 17.6696 76.2175 17.3641C76.7748 17.0585 77.1509 16.6558 77.346 16.1558L79.3103 16.7183C79.0735 17.246 78.7113 17.7252 78.2237 18.1558C77.75 18.5724 77.1858 18.9058 76.531 19.1558C75.8762 19.3919 75.1657 19.5099 74.3995 19.5099ZM71.1186 13.0933H77.7221C77.6803 12.4683 77.4992 11.9196 77.1788 11.4474C76.8723 10.9613 76.4753 10.5863 75.9877 10.3224C75.514 10.0446 74.9846 9.90575 74.3995 9.90575C73.8283 9.90575 73.2989 10.0446 72.8113 10.3224C72.3376 10.5863 71.9475 10.9613 71.641 11.4474C71.3345 11.9196 71.1604 12.4683 71.1186 13.0933Z" fill="white"/>
<path d="M62.5317 19.5099C61.654 19.5099 60.8808 19.3016 60.2121 18.8849C59.5434 18.4683 59.014 17.9266 58.6239 17.2599V23.7391H56.3252V8.40575H58.3522V10.3641C58.7702 9.71131 59.3135 9.19048 59.9822 8.80159C60.6509 8.4127 61.3962 8.21825 62.2182 8.21825C62.9705 8.21825 63.6601 8.37103 64.287 8.67659C64.9139 8.96825 65.4573 9.37798 65.917 9.90575C66.3767 10.4335 66.732 11.0377 66.9828 11.7183C67.2475 12.3849 67.3798 13.0933 67.3798 13.8433C67.3798 14.8849 67.1708 15.8363 66.7529 16.6974C66.3489 17.5585 65.7777 18.246 65.0393 18.7599C64.3149 19.2599 63.479 19.5099 62.5317 19.5099ZM61.7794 17.5516C62.267 17.5516 62.7058 17.4474 63.0959 17.2391C63.4999 17.0308 63.8412 16.753 64.1198 16.4058C64.4124 16.0585 64.6353 15.6627 64.7886 15.2183C64.9418 14.7738 65.0184 14.3155 65.0184 13.8433C65.0184 13.3433 64.9348 12.871 64.7677 12.4266C64.6005 11.9821 64.3567 11.5933 64.0363 11.2599C63.7298 10.9266 63.3675 10.6627 62.9496 10.4683C62.5456 10.2738 62.0998 10.1766 61.6122 10.1766C61.3196 10.1766 61.0131 10.2321 60.6927 10.3433C60.3723 10.4544 60.0728 10.6071 59.7941 10.8016C59.5155 10.996 59.2717 11.2252 59.0627 11.4891C58.8538 11.753 58.7075 12.0308 58.6239 12.3224V15.1766C58.8189 15.621 59.0767 16.0238 59.3971 16.3849C59.7175 16.7321 60.0867 17.0169 60.5046 17.2391C60.9226 17.4474 61.3475 17.5516 61.7794 17.5516Z" fill="white"/>
<path d="M43.7354 16.1141C43.7354 15.4196 43.9304 14.8155 44.3205 14.3016C44.7245 13.7738 45.2748 13.371 45.9714 13.0933C46.6679 12.8016 47.476 12.6558 48.3954 12.6558C48.883 12.6558 49.3776 12.6905 49.8791 12.7599C50.3946 12.8294 50.8474 12.9405 51.2374 13.0933V12.4058C51.2374 11.6419 51.0076 11.0446 50.5478 10.6141C50.0881 10.1835 49.4264 9.96825 48.5626 9.96825C47.9496 9.96825 47.3715 10.0794 46.8281 10.3016C46.2848 10.5099 45.7067 10.8085 45.0937 11.1974L44.3205 9.65575C45.0449 9.16964 45.7693 8.80853 46.4938 8.57242C47.2321 8.33631 48.0053 8.21825 48.8134 8.21825C50.2762 8.21825 51.4255 8.60714 52.2614 9.38492C53.1112 10.1488 53.5361 11.2391 53.5361 12.6558V16.7183C53.5361 16.9821 53.5779 17.1696 53.6615 17.2808C53.759 17.3919 53.9193 17.4544 54.1422 17.4683V19.3016C53.9332 19.3433 53.7451 19.371 53.5779 19.3849C53.4108 19.3988 53.2714 19.4058 53.16 19.4058C52.6724 19.4058 52.3032 19.2877 52.0524 19.0516C51.8017 18.8155 51.6554 18.5377 51.6136 18.2183L51.5509 17.5933C51.0772 18.2044 50.4712 18.6766 49.7328 19.0099C48.9945 19.3433 48.2491 19.5099 47.4968 19.5099C46.7724 19.5099 46.1246 19.3641 45.5534 19.0724C44.9822 18.7669 44.5364 18.3571 44.216 17.8433C43.8956 17.3294 43.7354 16.753 43.7354 16.1141ZM50.6941 16.7808C50.8613 16.6002 50.9936 16.4196 51.0912 16.2391C51.1887 16.0585 51.2374 15.8988 51.2374 15.7599V14.5099C50.8474 14.3571 50.4364 14.246 50.0045 14.1766C49.5726 14.0933 49.1477 14.0516 48.7298 14.0516C47.8939 14.0516 47.2113 14.2183 46.6819 14.5516C46.1664 14.8849 45.9087 15.3433 45.9087 15.9266C45.9087 16.246 45.9922 16.5516 46.1594 16.8433C46.3405 17.1349 46.5913 17.371 46.9117 17.5516C47.2461 17.7321 47.6571 17.8224 48.1447 17.8224C48.6462 17.8224 49.1268 17.7252 49.5866 17.5308C50.0463 17.3363 50.4155 17.0863 50.6941 16.7808Z" fill="white"/>
<path d="M35.5596 19.4058C34.3754 19.4058 33.3723 19.2044 32.5504 18.8016C31.7424 18.3988 31.0876 17.8502 30.586 17.1558C30.0984 16.4613 29.7362 15.6696 29.4994 14.7808C29.2765 13.8919 29.165 12.9683 29.165 12.0099V4.50992H31.5055V12.0099C31.5055 12.6905 31.5752 13.3502 31.7145 13.9891C31.8538 14.6141 32.0767 15.1766 32.3832 15.6766C32.6897 16.1766 33.1007 16.5724 33.6161 16.8641C34.1455 17.1558 34.7934 17.3016 35.5596 17.3016C36.3397 17.3016 36.9876 17.1558 37.503 16.8641C38.0324 16.5585 38.4434 16.1558 38.736 15.6558C39.0424 15.1419 39.2654 14.5724 39.4047 13.9474C39.544 13.3224 39.6136 12.6766 39.6136 12.0099V4.50992H41.975V12.0099C41.975 13.0238 41.8496 13.9821 41.5989 14.8849C41.362 15.7738 40.9859 16.5585 40.4704 17.2391C39.9689 17.9058 39.3141 18.4335 38.5061 18.8224C37.6981 19.2113 36.7159 19.4058 35.5596 19.4058Z" fill="white"/>
</svg>
