<svg width="512" height="596" viewBox="0 0 512 596" fill="none" xmlns="http://www.w3.org/2000/svg">
<path d="M-64.5214 193.731C-101.158 227.029 -92.3445 255.626 -83.3585 265.763C-78.5446 271.727 -62.0426 281.787 -34.5458 274.317C-0.174873 264.979 296.852 130.665 352.654 186.468C408.457 242.27 274.143 539.297 264.805 573.668C257.335 601.165 267.395 617.667 273.359 622.48C283.496 631.466 312.093 640.279 345.391 603.643C387.014 557.848 477.04 473.037 522.809 286.458C559.425 137.195 526.234 56.0004 505.061 34.061C483.121 12.8883 401.927 -20.3031 252.664 16.3124C66.0844 62.0818 -18.7262 152.108 -64.5214 193.731Z" fill="white" fill-opacity="0.08"/>
</svg>
