<svg width="44" height="44" viewBox="0 0 44 44" fill="none" xmlns="http://www.w3.org/2000/svg">
<path d="M7.3335 5.5H1.8335V9.16667H5.50016V34.8333H1.8335V38.5H7.3335C8.34601 38.5 9.16683 37.6792 9.16683 36.6667V7.33333C9.16683 6.32082 8.34601 5.5 7.3335 5.5ZM12.8335 7.33333C12.8335 6.32082 13.6543 5.5 14.6668 5.5H29.3335C30.346 5.5 31.1668 6.32082 31.1668 7.33333V36.6667C31.1668 37.6792 30.346 38.5 29.3335 38.5H14.6668C13.6543 38.5 12.8335 37.6792 12.8335 36.6667V7.33333ZM16.5002 9.16667V34.8333H27.5002V9.16667H16.5002ZM34.8335 7.33333C34.8335 6.32082 35.6543 5.5 36.6668 5.5H42.1668V9.16667H38.5002V34.8333H42.1668V38.5H36.6668C35.6543 38.5 34.8335 37.6792 34.8335 36.6667V7.33333Z" fill="#EAF27C"/>
</svg>
