<svg width="28" height="28" viewBox="0 0 28 28" fill="none" xmlns="http://www.w3.org/2000/svg">
<path d="M7.19981 20.9999C7.68028 19.6405 8.97673 18.6666 10.5007 18.6666C12.0246 18.6666 13.3211 19.6405 13.8015 20.9999H25.6673V23.3333H13.8015C13.3211 24.6927 12.0246 25.6666 10.5007 25.6666C8.97673 25.6666 7.68028 24.6927 7.19981 23.3333H2.33398V20.9999H7.19981ZM14.1998 12.8333C14.6802 11.4739 15.9768 10.4999 17.5007 10.4999C19.0246 10.4999 20.3211 11.4739 20.8015 12.8333H25.6673V15.1666H20.8015C20.3211 16.526 19.0246 17.4999 17.5007 17.4999C15.9768 17.4999 14.6802 16.526 14.1998 15.1666H2.33398V12.8333H14.1998ZM7.19981 4.66659C7.68028 3.3072 8.97673 2.33325 10.5007 2.33325C12.0246 2.33325 13.3211 3.3072 13.8015 4.66659H25.6673V6.99992H13.8015C13.3211 8.35931 12.0246 9.33325 10.5007 9.33325C8.97673 9.33325 7.68028 8.35931 7.19981 6.99992H2.33398V4.66659H7.19981Z" fill="#B05BFF"/>
</svg>
