<svg width="28" height="28" viewBox="0 0 28 28" fill="none" xmlns="http://www.w3.org/2000/svg">
<path d="M1.37891 14C2.47617 8.02639 7.7098 3.5 14.0007 3.5C20.2915 3.5 25.5251 8.02639 26.6224 14C25.5251 19.9736 20.2915 24.5 14.0007 24.5C7.7098 24.5 2.47617 19.9736 1.37891 14ZM14.0007 19.8333C17.2223 19.8333 19.834 17.2216 19.834 14C19.834 10.7783 17.2223 8.16667 14.0007 8.16667C10.779 8.16667 8.1673 10.7783 8.1673 14C8.1673 17.2216 10.779 19.8333 14.0007 19.8333ZM14.0007 17.5C12.0676 17.5 10.5006 15.933 10.5006 14C10.5006 12.0669 12.0676 10.5 14.0007 10.5C15.9336 10.5 17.5007 12.0669 17.5007 14C17.5007 15.933 15.9336 17.5 14.0007 17.5Z" fill="#30A14E"/>
</svg>
