<svg width="20" height="20" viewBox="0 0 20 20" fill="none" xmlns="http://www.w3.org/2000/svg">
<path d="M0.984863 10C1.76862 5.73313 5.50693 2.5 10.0004 2.5C14.4938 2.5 18.2322 5.73313 19.0159 10C18.2322 14.2668 14.4938 17.5 10.0004 17.5C5.50693 17.5 1.76862 14.2668 0.984863 10ZM10.0004 14.1667C12.3016 14.1667 14.1671 12.3012 14.1671 10C14.1671 7.69882 12.3016 5.83333 10.0004 5.83333C7.6992 5.83333 5.83371 7.69882 5.83371 10C5.83371 12.3012 7.6992 14.1667 10.0004 14.1667ZM10.0004 12.5C8.61966 12.5 7.50038 11.3807 7.50038 10C7.50038 8.61925 8.61966 7.5 10.0004 7.5C11.3811 7.5 12.5004 8.61925 12.5004 10C12.5004 11.3807 11.3811 12.5 10.0004 12.5Z" fill="white" fill-opacity="0.56"/>
</svg>
