<svg width="1200" height="38" viewBox="0 0 1200 38" fill="none" xmlns="http://www.w3.org/2000/svg">
<path d="M1143.6 37.9442C1140.93 37.9442 1138.52 37.4272 1136.37 36.3931C1134.22 35.359 1132.36 33.963 1130.8 32.205C1129.24 30.4126 1128.03 28.4133 1127.16 26.2073C1126.33 23.9667 1125.91 21.6745 1125.91 19.3305C1125.91 16.8832 1126.36 14.5565 1127.27 12.3504C1128.17 10.1099 1129.42 8.12785 1131.01 6.40436C1132.61 4.6464 1134.48 3.26761 1136.63 2.26798C1138.82 1.23389 1141.18 0.716845 1143.71 0.716845C1146.34 0.716845 1148.74 1.25113 1150.89 2.31969C1153.07 3.38825 1154.93 4.81875 1156.45 6.61118C1158.02 8.40361 1159.21 10.4029 1160.04 12.6089C1160.91 14.815 1161.34 17.0728 1161.34 19.3822C1161.34 21.8296 1160.89 24.1735 1159.99 26.4141C1159.12 28.6202 1157.89 30.6022 1156.3 32.3601C1154.7 34.0836 1152.81 35.4452 1150.63 36.4448C1148.48 37.4444 1146.14 37.9442 1143.6 37.9442ZM1131.84 19.3305C1131.84 21.054 1132.12 22.7258 1132.68 24.3459C1133.23 25.966 1134.01 27.4137 1135.02 28.6891C1136.06 29.93 1137.31 30.9124 1138.76 31.6363C1140.22 32.3601 1141.85 32.7221 1143.66 32.7221C1145.53 32.7221 1147.19 32.3429 1148.65 31.5846C1150.11 30.8262 1151.32 29.8094 1152.29 28.534C1153.3 27.2241 1154.06 25.7764 1154.58 24.1908C1155.1 22.5707 1155.36 20.9506 1155.36 19.3305C1155.36 17.607 1155.08 15.9525 1154.53 14.3669C1154.01 12.7468 1153.23 11.3163 1152.19 10.0754C1151.15 8.80001 1149.9 7.80039 1148.44 7.07653C1147.02 6.35266 1145.42 5.99072 1143.66 5.99072C1141.78 5.99072 1140.12 6.36989 1138.66 7.12823C1137.2 7.88657 1135.97 8.90342 1134.97 10.1788C1133.96 11.4542 1133.18 12.8847 1132.62 14.4703C1132.1 16.0559 1131.84 17.676 1131.84 19.3305Z" fill="#EAF27C"/>
<path d="M1008.8 19.0756C1008.8 16.8351 1009.2 14.6463 1010 12.5091C1010.8 10.3375 1011.96 8.37276 1013.48 6.6148C1015.04 4.82236 1016.94 3.4091 1019.16 2.37501C1021.37 1.30644 1023.89 0.772162 1026.7 0.772162C1030.03 0.772162 1032.91 1.5305 1035.34 3.04717C1037.76 4.52937 1039.57 6.44245 1040.75 8.78639L1036.17 11.837C1035.47 10.3548 1034.59 9.18279 1033.52 8.32105C1032.47 7.4593 1031.33 6.85608 1030.08 6.51138C1028.87 6.16669 1027.67 5.99434 1026.49 5.99434C1024.55 5.99434 1022.85 6.39074 1021.39 7.18355C1019.94 7.94188 1018.7 8.95874 1017.7 10.2341C1016.73 11.5095 1015.98 12.94 1015.46 14.5256C1014.98 16.1112 1014.73 17.6968 1014.73 19.2824C1014.73 21.0404 1015.03 22.7467 1015.62 24.4012C1016.21 26.0213 1017.02 27.469 1018.06 28.7444C1019.14 29.9853 1020.4 30.9677 1021.86 31.6916C1023.32 32.4154 1024.91 32.7774 1026.65 32.7774C1027.83 32.7774 1029.06 32.5706 1030.34 32.1569C1031.62 31.7433 1032.8 31.1056 1033.88 30.2438C1034.99 29.3476 1035.86 28.1757 1036.48 26.7279L1041.32 29.4683C1040.56 31.2952 1039.36 32.8463 1037.73 34.1217C1036.13 35.3971 1034.33 36.3622 1032.32 37.0172C1030.34 37.6721 1028.38 37.9996 1026.44 37.9996C1023.84 37.9996 1021.46 37.4653 1019.31 36.3967C1017.16 35.2937 1015.3 33.8459 1013.74 32.0535C1012.18 30.2266 1010.97 28.1929 1010.1 25.9524C1009.23 23.6774 1008.8 21.3851 1008.8 19.0756Z" fill="#EAF27C"/>
<path d="M986.381 37.9448C983.433 37.9448 980.935 37.445 978.889 36.4454C976.877 35.4458 975.247 34.0842 973.998 32.3607C972.784 30.6372 971.882 28.6725 971.292 26.4664C970.737 24.2603 970.46 21.9681 970.46 19.5897V0.975961H976.287V19.5897C976.287 21.2787 976.461 22.916 976.807 24.5016C977.154 26.0527 977.709 27.4488 978.473 28.6897C979.236 29.9306 980.259 30.913 981.542 31.6369C982.86 32.3607 984.473 32.7227 986.381 32.7227C988.323 32.7227 989.936 32.3607 991.22 31.6369C992.538 30.8785 993.561 29.8789 994.289 28.638C995.052 27.3626 995.607 25.9493 995.954 24.3982C996.301 22.8471 996.475 21.2442 996.475 19.5897V0.975961H1002.35V19.5897C1002.35 22.106 1002.04 24.4844 1001.42 26.7249C1000.83 28.931 999.891 30.8785 998.608 32.5675C997.359 34.2221 995.729 35.5319 993.717 36.4971C991.705 37.4623 989.26 37.9448 986.381 37.9448Z" fill="#EAF27C"/>
<path d="M863.061 37.9442C860.633 37.9442 858.361 37.4444 856.246 36.4448C854.13 35.4452 852.274 34.0664 850.678 32.3084C849.118 30.5505 847.886 28.5512 846.984 26.3107C846.117 24.0701 845.684 21.6917 845.684 19.1754C845.684 16.6591 846.117 14.2979 846.984 12.0919C847.886 9.88581 849.118 7.92103 850.678 6.19754C852.274 4.47405 854.13 3.12973 856.246 2.16458C858.396 1.19942 860.737 0.716845 863.27 0.716845C866.773 0.716845 869.721 1.45795 872.114 2.94015C874.542 4.38788 876.364 6.31819 877.578 8.73108L873.103 11.9368C872.132 9.93752 870.744 8.43808 868.941 7.43846C867.172 6.43883 865.229 5.93902 863.113 5.93902C861.379 5.93902 859.801 6.30095 858.379 7.02482C856.957 7.74868 855.725 8.74831 854.685 10.0237C853.679 11.2646 852.916 12.6951 852.395 14.3152C851.875 15.9008 851.615 17.5726 851.615 19.3305C851.615 21.1919 851.91 22.9326 852.499 24.5527C853.089 26.1728 853.922 27.6033 854.997 28.8442C856.072 30.0506 857.338 30.9986 858.795 31.688C860.252 32.3774 861.83 32.7221 863.53 32.7221C865.541 32.7221 867.449 32.2222 869.253 31.2226C871.091 30.1885 872.808 28.6546 874.404 26.6209V32.5152C871.178 36.1346 867.397 37.9442 863.061 37.9442ZM873.831 23.4152H866.079V19.1237H878.722V37.6857H873.831V23.4152Z" fill="#EAF27C"/>
<path d="M604.269 37.9989C601.841 37.9989 599.569 37.4991 597.454 36.4995C595.338 35.4999 593.482 34.1211 591.886 32.3631C590.326 30.6051 589.094 28.6059 588.192 26.3654C587.325 24.1248 586.892 21.7464 586.892 19.2301C586.892 16.7138 587.325 14.3526 588.192 12.1466C589.094 9.9405 590.326 7.97572 591.886 6.25223C593.482 4.52874 595.338 3.18441 597.454 2.21926C599.604 1.2541 601.945 0.771526 604.477 0.771526C607.981 0.771526 610.929 1.51263 613.322 2.99483C615.75 4.44256 617.571 6.37287 618.786 8.78576L614.311 11.9914C613.34 9.9922 611.952 8.49276 610.149 7.49314C608.38 6.49351 606.437 5.9937 604.321 5.9937C602.587 5.9937 601.009 6.35564 599.587 7.0795C598.165 7.80337 596.933 8.80299 595.893 10.0784C594.887 11.3193 594.124 12.7498 593.603 14.3699C593.083 15.9555 592.823 17.6273 592.823 19.3852C592.823 21.2466 593.118 22.9873 593.707 24.6074C594.297 26.2275 595.13 27.658 596.205 28.8989C597.28 30.1053 598.546 31.0533 600.003 31.7426C601.46 32.432 603.038 32.7767 604.738 32.7767C606.749 32.7767 608.657 32.2769 610.461 31.2773C612.299 30.2432 614.016 28.7093 615.612 26.6756V32.5699C612.386 36.1893 608.605 37.9989 604.269 37.9989ZM615.039 23.4699H607.287V19.1784H619.93V37.7404H615.039V23.4699Z" fill="#EAF27C"/>
<path d="M564.365 37.9989C561.694 37.9989 559.284 37.4819 557.133 36.4478C554.983 35.4137 553.127 34.0177 551.566 32.2597C550.005 30.4673 548.791 28.468 547.924 26.2619C547.092 24.0214 546.675 21.7292 546.675 19.3852C546.675 16.9379 547.126 14.6112 548.028 12.4051C548.93 10.1645 550.179 8.18254 551.774 6.45904C553.37 4.70108 555.243 3.32229 557.393 2.32267C559.579 1.28857 561.937 0.771526 564.469 0.771526C567.105 0.771526 569.499 1.30581 571.649 2.37437C573.835 3.44294 575.69 4.87343 577.216 6.66586C578.777 8.45829 579.974 10.4575 580.806 12.6636C581.674 14.8697 582.107 17.1274 582.107 19.4369C582.107 21.8843 581.656 24.2282 580.754 26.4688C579.887 28.6748 578.656 30.6568 577.06 32.4148C575.465 34.1383 573.574 35.4999 571.389 36.4995C569.239 37.4991 566.897 37.9989 564.365 37.9989ZM552.607 19.3852C552.607 21.1087 552.884 22.7805 553.439 24.4006C553.994 26.0207 554.775 27.4684 555.78 28.7438C556.821 29.9847 558.07 30.9671 559.527 31.6909C560.983 32.4148 562.614 32.7767 564.417 32.7767C566.29 32.7767 567.955 32.3976 569.412 31.6392C570.869 30.8809 572.083 29.864 573.054 28.5887C574.06 27.2788 574.823 25.8311 575.343 24.2455C575.864 22.6254 576.124 21.0053 576.124 19.3852C576.124 17.6617 575.846 16.0072 575.291 14.4216C574.771 12.8015 573.991 11.371 572.95 10.1301C571.909 8.8547 570.661 7.85507 569.204 7.13121C567.782 6.40734 566.186 6.04541 564.417 6.04541C562.544 6.04541 560.879 6.42457 559.422 7.18291C557.966 7.94125 556.734 8.95811 555.728 10.2335C554.722 11.5089 553.942 12.9394 553.387 14.525C552.867 16.1106 552.607 17.7307 552.607 19.3852Z" fill="#EAF27C"/>
<path d="M113.658 12.5125L114.75 6.41138H112.981V0H118.548V6.46309L116.883 12.5125H113.658Z" fill="#EAF27C"/>
<path d="M92.1058 37.9995C89.1575 37.9995 86.6601 37.4997 84.6136 36.5001C82.6019 35.5005 80.9716 34.1389 79.7229 32.4154C78.5089 30.6919 77.607 28.7271 77.0174 26.5211C76.4624 24.315 76.1849 22.0228 76.1849 19.6443V1.03064H82.0122V19.6443C82.0122 21.3334 82.1856 22.9707 82.5325 24.5563C82.8793 26.1074 83.4343 27.5035 84.1974 28.7444C84.9605 29.9853 85.9837 30.9677 87.2671 31.6915C88.5852 32.4154 90.1981 32.7773 92.1058 32.7773C94.0483 32.7773 95.6612 32.4154 96.9445 31.6915C98.2626 30.9332 99.2859 29.9336 100.014 28.6927C100.777 27.4173 101.332 26.004 101.679 24.4529C102.026 22.9017 102.199 21.2989 102.199 19.6443V1.03064H108.079V19.6443C108.079 22.1606 107.767 24.5391 107.142 26.7796C106.553 28.9857 105.616 30.9332 104.333 32.6222C103.084 34.2768 101.454 35.5866 99.4419 36.5518C97.4302 37.5169 94.9848 37.9995 92.1058 37.9995Z" fill="#EAF27C"/>
<path d="M51.89 37.9989C49.2191 37.9989 46.8085 37.4819 44.6579 36.4478C42.5074 35.4137 40.6517 34.0177 39.0908 32.2597C37.5299 30.4673 36.3159 28.468 35.4488 26.2619C34.6163 24.0214 34.2001 21.7292 34.2001 19.3852C34.2001 16.9379 34.651 14.6112 35.5528 12.4051C36.4547 10.1645 37.7034 8.18254 39.2989 6.45904C40.8945 4.70108 42.7675 3.32229 44.9181 2.32267C47.1033 1.28857 49.4619 0.771526 51.994 0.771526C54.6302 0.771526 57.0235 1.30581 59.1741 2.37437C61.3593 3.44294 63.215 4.87343 64.7412 6.66586C66.302 8.45829 67.4987 10.4575 68.3312 12.6636C69.1983 14.8697 69.6319 17.1274 69.6319 19.4369C69.6319 21.8843 69.181 24.2282 68.2792 26.4688C67.412 28.6748 66.1806 30.6568 64.5851 32.4148C62.9895 34.1383 61.0991 35.4999 58.9139 36.4995C56.7634 37.4991 54.4221 37.9989 51.89 37.9989ZM40.1314 19.3852C40.1314 21.1087 40.4089 22.7805 40.9639 24.4006C41.5188 26.0207 42.2993 27.4684 43.3052 28.7438C44.3458 29.9847 45.5944 30.9671 47.0513 31.6909C48.5081 32.4148 50.1383 32.7767 51.942 32.7767C53.8151 32.7767 55.48 32.3976 56.9368 31.6392C58.3936 30.8809 59.6076 29.864 60.5788 28.5887C61.5847 27.2788 62.3478 25.8311 62.8681 24.2455C63.3884 22.6254 63.6486 21.0053 63.6486 19.3852C63.6486 17.6617 63.3711 16.0072 62.8161 14.4216C62.2958 12.8015 61.5154 11.371 60.4748 10.1301C59.4342 8.8547 58.1855 7.85507 56.7287 7.13121C55.3066 6.40734 53.711 6.04541 51.942 6.04541C50.069 6.04541 48.404 6.42457 46.9472 7.18291C45.4904 7.94125 44.259 8.95811 43.2531 10.2335C42.2472 11.5089 41.4668 12.9394 40.9118 14.525C40.3915 16.1106 40.1314 17.7307 40.1314 19.3852Z" fill="#EAF27C"/>
<path d="M1174.25 12.0442V38H1168.42V1.28965H1173.21L1194.12 27.8142V1.34135H1200V38H1194.9L1174.25 12.0442Z" fill="#EAF27C"/>
<path d="M1113.04 38V1.28965H1118.87V38H1113.04Z" fill="#EAF27C"/>
<path d="M1107.04 6.40842H1094.77V38H1088.89V6.40842H1076.56V1.28965H1107.04V6.40842Z" fill="#EAF27C"/>
<path d="M1057.91 1.28965H1063.42L1077.78 38H1071.64L1067.74 28.021H1053.48L1049.63 38H1043.44L1057.91 1.28965ZM1066.6 23.7295L1060.66 7.64933L1054.53 23.7295H1066.6Z" fill="#EAF27C"/>
<path d="M932.695 38V1.28965H945.807C949.795 1.28965 953.125 2.11692 955.796 3.77147C958.467 5.39156 960.461 7.59763 961.779 10.3897C963.132 13.1473 963.809 16.2151 963.809 19.5931C963.809 23.3159 963.063 26.556 961.571 29.3136C960.115 32.0712 958.033 34.2083 955.328 35.725C952.622 37.2417 949.449 38 945.807 38H932.695ZM957.877 19.5931C957.877 17.0079 957.392 14.7329 956.42 12.7681C955.484 10.7688 954.114 9.21771 952.31 8.11467C950.541 6.97717 948.373 6.40842 945.807 6.40842H938.522V32.8812H945.807C948.408 32.8812 950.593 32.2952 952.362 31.1233C954.166 29.9513 955.536 28.3657 956.473 26.3664C957.409 24.3672 957.877 22.1094 957.877 19.5931Z" fill="#EAF27C"/>
<path d="M925.643 32.8812V38H900.305V1.28965H925.174V6.40842H906.132V16.8528H922.625V21.6613H906.132V32.8812H925.643Z" fill="#EAF27C"/>
<path d="M812.874 12.0442V38H807.046V1.28965H811.833L832.749 27.8142V1.34135H838.628V38H833.529L812.874 12.0442Z" fill="#EAF27C"/>
<path d="M791.829 38V1.28965H797.656V38H791.829Z" fill="#EAF27C"/>
<path d="M776.58 38V11.8374L765.706 31.692H762.272L751.346 11.8374V38H745.518V1.28965H751.762L763.989 23.7295L776.216 1.28965H782.459V38H776.58Z" fill="#EAF27C"/>
<path d="M730.267 38V11.8374L719.393 31.692H715.959L705.033 11.8374V38H699.206V1.28965H705.449L717.676 23.7295L729.903 1.28965H736.147V38H730.267Z" fill="#EAF27C"/>
<path d="M673.721 1.28965H679.236L693.596 38H687.457L683.555 28.021H669.299L665.449 38H659.257L673.721 1.28965ZM682.41 23.7295L676.479 7.64933L670.339 23.7295H682.41Z" fill="#EAF27C"/>
<path d="M627.617 38V1.28965H643.694C645.359 1.28965 646.885 1.63435 648.272 2.32374C649.66 3.01314 650.856 3.92659 651.862 5.06409C652.903 6.2016 653.701 7.47698 654.256 8.89024C654.845 10.3035 655.14 11.7512 655.14 13.2334C655.14 14.8535 654.845 16.4047 654.256 17.8869C653.666 19.3691 652.816 20.6444 651.706 21.713C650.631 22.7816 649.365 23.5571 647.908 24.0397L656.597 38H650.041L642.029 25.2289H633.444V38H627.617ZM633.444 20.1102H643.642C644.717 20.1102 645.671 19.7999 646.503 19.1795C647.336 18.559 647.995 17.7317 648.48 16.6977C648.966 15.6291 649.209 14.4744 649.209 13.2334C649.209 11.9581 648.931 10.8206 648.376 9.82093C647.821 8.78683 647.093 7.95956 646.191 7.3391C645.324 6.71865 644.37 6.40842 643.329 6.40842H633.444V20.1102Z" fill="#EAF27C"/>
<path d="M513.679 38V1.28965H529.756C531.421 1.28965 532.947 1.63435 534.335 2.32374C535.722 3.01314 536.919 3.92659 537.925 5.06409C538.965 6.2016 539.763 7.47698 540.318 8.89024C540.908 10.3035 541.203 11.7512 541.203 13.2334C541.203 14.8535 540.908 16.4047 540.318 17.8869C539.728 19.3691 538.879 20.6444 537.769 21.713C536.693 22.7816 535.427 23.5571 533.971 24.0397L542.659 38H536.104L528.091 25.2289H519.506V38H513.679ZM519.506 20.1102H529.704C530.779 20.1102 531.733 19.7999 532.566 19.1795C533.398 18.559 534.057 17.7317 534.543 16.6977C535.028 15.6291 535.271 14.4744 535.271 13.2334C535.271 11.9581 534.994 10.8206 534.439 9.82093C533.884 8.78683 533.155 7.95956 532.254 7.3391C531.386 6.71865 530.433 6.40842 529.392 6.40842H519.506V20.1102Z" fill="#EAF27C"/>
<path d="M480.222 38V1.28965H495.726C497.391 1.28965 498.917 1.63435 500.305 2.32374C501.692 3.01314 502.906 3.92659 503.947 5.06409C504.988 6.2016 505.785 7.47698 506.34 8.89024C506.895 10.3035 507.173 11.7512 507.173 13.2334C507.173 15.2672 506.704 17.2147 505.768 19.0761C504.866 20.903 503.565 22.3852 501.866 23.5227C500.201 24.6602 498.258 25.2289 496.038 25.2289H486.049V38H480.222ZM486.049 20.1102H495.674C496.784 20.1102 497.755 19.8172 498.588 19.2312C499.42 18.6107 500.062 17.7835 500.513 16.7494C500.999 15.7153 501.241 14.5433 501.241 13.2334C501.241 11.8891 500.964 10.6999 500.409 9.66581C499.854 8.63172 499.126 7.83891 498.224 7.2874C497.357 6.70141 496.403 6.40842 495.362 6.40842H486.049V20.1102Z" fill="#EAF27C"/>
<path d="M459.274 32.8812V38H433.936V1.28965H458.806V6.40842H439.763V16.8528H456.256V21.6613H439.763V32.8812H459.274Z" fill="#EAF27C"/>
<path d="M399.976 1.28965L411.11 30.9165L422.192 1.28965H428.383L413.867 38H408.352L393.784 1.28965H399.976Z" fill="#EAF27C"/>
<path d="M382.417 38V1.28965H388.245V38H382.417Z" fill="#EAF27C"/>
<path d="M376.423 6.40842H364.144V38H358.264V6.40842H345.934V1.28965H376.423V6.40842Z" fill="#EAF27C"/>
<path d="M315.858 38V1.28965H331.363C333.028 1.28965 334.554 1.63435 335.942 2.32374C337.329 3.01314 338.543 3.92659 339.584 5.06409C340.624 6.2016 341.422 7.47698 341.977 8.89024C342.532 10.3035 342.809 11.7512 342.809 13.2334C342.809 15.2672 342.341 17.2147 341.405 19.0761C340.503 20.903 339.202 22.3852 337.502 23.5227C335.838 24.6602 333.895 25.2289 331.675 25.2289H321.686V38H315.858ZM321.686 20.1102H331.311C332.421 20.1102 333.392 19.8172 334.225 19.2312C335.057 18.6107 335.699 17.7835 336.15 16.7494C336.635 15.7153 336.878 14.5433 336.878 13.2334C336.878 11.8891 336.601 10.6999 336.046 9.66581C335.491 8.63172 334.762 7.83891 333.86 7.2874C332.993 6.70141 332.039 6.40842 330.999 6.40842H321.686V20.1102Z" fill="#EAF27C"/>
<path d="M290.374 1.28965H295.89L310.25 38H304.11L300.208 28.021H285.952L282.102 38H275.91L290.374 1.28965ZM299.063 23.7295L293.132 7.64933L286.993 23.7295H299.063Z" fill="#EAF27C"/>
<path d="M242.796 38V1.28965H255.908C259.897 1.28965 263.226 2.11692 265.897 3.77147C268.568 5.39156 270.563 7.59763 271.881 10.3897C273.233 13.1473 273.91 16.2151 273.91 19.5931C273.91 23.3159 273.164 26.556 271.673 29.3136C270.216 32.0712 268.135 34.2083 265.429 35.725C262.724 37.2417 259.55 38 255.908 38H242.796ZM267.978 19.5931C267.978 17.0079 267.493 14.7329 266.522 12.7681C265.585 10.7688 264.215 9.21771 262.411 8.11467C260.642 6.97717 258.474 6.40842 255.908 6.40842H248.624V32.8812H255.908C258.509 32.8812 260.694 32.2952 262.463 31.1233C264.267 29.9513 265.637 28.3657 266.574 26.3664C267.51 24.3672 267.978 22.1094 267.978 19.5931Z" fill="#EAF27C"/>
<path d="M217.313 1.28965H222.828L237.188 38H231.048L227.146 28.021H212.89L209.04 38H202.849L217.313 1.28965ZM226.002 23.7295L220.07 7.64933L213.931 23.7295H226.002Z" fill="#EAF27C"/>
<path d="M187.325 32.8812V38H161.986V1.28965H186.856V6.40842H167.814V16.8528H184.307V21.6613H167.814V32.8812H187.325Z" fill="#EAF27C"/>
<path d="M126.548 38V1.28965H142.625C144.29 1.28965 145.816 1.63435 147.203 2.32374C148.591 3.01314 149.788 3.92659 150.793 5.06409C151.834 6.2016 152.632 7.47698 153.187 8.89024C153.776 10.3035 154.071 11.7512 154.071 13.2334C154.071 14.8535 153.776 16.4047 153.187 17.8869C152.597 19.3691 151.747 20.6444 150.637 21.713C149.562 22.7816 148.296 23.5571 146.839 24.0397L155.528 38H148.972L140.96 25.2289H132.375V38H126.548ZM132.375 20.1102H142.573C143.648 20.1102 144.602 19.7999 145.434 19.1795C146.267 18.559 146.926 17.7317 147.412 16.6977C147.897 15.6291 148.14 14.4744 148.14 13.2334C148.14 11.9581 147.862 10.8206 147.307 9.82093C146.752 8.78683 146.024 7.95956 145.122 7.3391C144.255 6.71865 143.301 6.40842 142.261 6.40842H132.375V20.1102Z" fill="#EAF27C"/>
<path d="M6.39958 1.28965L16.5973 19.5414L26.8991 1.28965H33.2986L19.5109 24.867V38H13.6837V24.7636L0 1.28965H6.39958Z" fill="#EAF27C"/>
</svg>
