<svg width="197" height="80" viewBox="0 0 197 80" fill="none" xmlns="http://www.w3.org/2000/svg">
<rect x="-81" width="278" height="80" rx="12" fill="#0E1011"/>
<rect x="-80.5" y="0.5" width="277" height="79" rx="11.5" stroke="white" stroke-opacity="0.12"/>
<path d="M-8.38 33V20.8H-12.76V19H-2.02V20.8H-6.4V33H-8.38ZM2.80094 33.24C1.80094 33.24 0.920938 33.02 0.160938 32.58C-0.599062 32.1267 -1.19906 31.5067 -1.63906 30.72C-2.06573 29.9333 -2.27906 29.0267 -2.27906 28C-2.27906 26.9733 -2.06573 26.0667 -1.63906 25.28C-1.2124 24.4933 -0.619062 23.88 0.140938 23.44C0.900938 22.9867 1.77427 22.76 2.76094 22.76C3.7476 22.76 4.62094 22.9867 5.38094 23.44C6.14094 23.88 6.73427 24.4933 7.16094 25.28C7.58761 26.0667 7.80094 26.9733 7.80094 28C7.80094 29.0267 7.58761 29.9333 7.16094 30.72C6.73427 31.5067 6.14094 32.1267 5.38094 32.58C4.63427 33.02 3.77427 33.24 2.80094 33.24ZM2.80094 31.5C3.40094 31.5 3.93427 31.3533 4.40094 31.06C4.8676 30.7533 5.2276 30.34 5.48094 29.82C5.7476 29.3 5.88094 28.6933 5.88094 28C5.88094 27.3067 5.7476 26.7 5.48094 26.18C5.2276 25.66 4.86094 25.2533 4.38094 24.96C3.90094 24.6533 3.36094 24.5 2.76094 24.5C2.1476 24.5 1.6076 24.6533 1.14094 24.96C0.674271 25.2533 0.307604 25.66 0.0409378 26.18C-0.225729 26.7 -0.359062 27.3067 -0.359062 28C-0.359062 28.6933 -0.225729 29.3 0.0409378 29.82C0.307604 30.34 0.680938 30.7533 1.16094 31.06C1.64094 31.3533 2.1876 31.5 2.80094 31.5ZM14.4025 33.24C13.4025 33.24 12.5225 33.02 11.7625 32.58C11.0025 32.1267 10.4025 31.5067 9.9625 30.72C9.53583 29.9333 9.3225 29.0267 9.3225 28C9.3225 26.9733 9.53583 26.0667 9.9625 25.28C10.3892 24.4933 10.9825 23.88 11.7425 23.44C12.5025 22.9867 13.3758 22.76 14.3625 22.76C15.3492 22.76 16.2225 22.9867 16.9825 23.44C17.7425 23.88 18.3358 24.4933 18.7625 25.28C19.1892 26.0667 19.4025 26.9733 19.4025 28C19.4025 29.0267 19.1892 29.9333 18.7625 30.72C18.3358 31.5067 17.7425 32.1267 16.9825 32.58C16.2358 33.02 15.3758 33.24 14.4025 33.24ZM14.4025 31.5C15.0025 31.5 15.5358 31.3533 16.0025 31.06C16.4692 30.7533 16.8292 30.34 17.0825 29.82C17.3492 29.3 17.4825 28.6933 17.4825 28C17.4825 27.3067 17.3492 26.7 17.0825 26.18C16.8292 25.66 16.4625 25.2533 15.9825 24.96C15.5025 24.6533 14.9625 24.5 14.3625 24.5C13.7492 24.5 13.2092 24.6533 12.7425 24.96C12.2758 25.2533 11.9092 25.66 11.6425 26.18C11.3758 26.7 11.2425 27.3067 11.2425 28C11.2425 28.6933 11.3758 29.3 11.6425 29.82C11.9092 30.34 12.2825 30.7533 12.7625 31.06C13.2425 31.3533 13.7892 31.5 14.4025 31.5ZM26.3669 33V23H28.1469L28.2269 24.38C28.5469 23.8467 28.9469 23.4467 29.4269 23.18C29.9069 22.9 30.4602 22.76 31.0869 22.76C31.8869 22.76 32.5669 22.9467 33.1269 23.32C33.6869 23.68 34.0935 24.2333 34.3469 24.98C34.6402 24.26 35.0535 23.7133 35.5869 23.34C36.1202 22.9533 36.7535 22.76 37.4869 22.76C38.6202 22.76 39.5069 23.1333 40.1469 23.88C40.7869 24.6133 41.1002 25.7467 41.0869 27.28V33H39.2069V27.88C39.2069 26.9733 39.1069 26.2867 38.9069 25.82C38.7202 25.34 38.4669 25.0067 38.1469 24.82C37.8269 24.6333 37.4535 24.5333 37.0269 24.52C36.2802 24.52 35.7002 24.8067 35.2869 25.38C34.8869 25.9533 34.6869 26.76 34.6869 27.8V33H32.7869V27.88C32.7869 26.9733 32.6935 26.2867 32.5069 25.82C32.3202 25.34 32.0602 25.0067 31.7269 24.82C31.4069 24.6333 31.0335 24.5333 30.6069 24.52C29.8602 24.52 29.2802 24.8067 28.8669 25.38C28.4669 25.9533 28.2669 26.76 28.2669 27.8V33H26.3669ZM50.3153 33L50.1953 31.16V23H52.0753V33H50.3153ZM43.2753 28.12V23H45.1753V28.12H43.2753ZM45.1753 28.12C45.1753 29.0133 45.2753 29.7 45.4753 30.18C45.6886 30.66 45.982 30.9933 46.3553 31.18C46.7286 31.3667 47.1486 31.4667 47.6153 31.48C48.4286 31.48 49.062 31.1933 49.5153 30.62C49.9686 30.0467 50.1953 29.24 50.1953 28.2H51.0153C51.0153 29.2533 50.8553 30.16 50.5353 30.92C50.2286 31.6667 49.7886 32.24 49.2153 32.64C48.642 33.04 47.942 33.24 47.1153 33.24C46.342 33.24 45.662 33.08 45.0753 32.76C44.502 32.44 44.0553 31.94 43.7353 31.26C43.4286 30.58 43.2753 29.7 43.2753 28.62V28.12H45.1753ZM59.2862 33.24C58.2863 33.24 57.3996 33.02 56.6263 32.58C55.8529 32.1267 55.2463 31.5067 54.8063 30.72C54.3796 29.9333 54.1663 29.0267 54.1663 28C54.1663 26.9733 54.3796 26.0667 54.8063 25.28C55.2463 24.4933 55.8463 23.88 56.6063 23.44C57.3796 22.9867 58.2596 22.76 59.2463 22.76C60.2196 22.76 61.0929 22.9867 61.8663 23.44C62.6529 23.8933 63.2396 24.54 63.6263 25.38L61.9063 26.1C61.6529 25.6067 61.2863 25.22 60.8063 24.94C60.3396 24.66 59.7996 24.52 59.1863 24.52C58.5863 24.52 58.0529 24.6667 57.5863 24.96C57.1196 25.2533 56.7529 25.6667 56.4863 26.2C56.2196 26.72 56.0863 27.32 56.0863 28C56.0863 28.68 56.2196 29.28 56.4863 29.8C56.7529 30.32 57.1263 30.7333 57.6063 31.04C58.0863 31.3333 58.6263 31.48 59.2263 31.48C59.8396 31.48 60.3863 31.3267 60.8663 31.02C61.3463 30.7 61.7063 30.2733 61.9463 29.74L63.6862 30.44C63.2996 31.32 62.7129 32.0067 61.9263 32.5C61.1529 32.9933 60.2729 33.24 59.2862 33.24ZM65.5861 33V19H67.4661V33H65.5861ZM72.5061 33V27.88H74.3861V33H72.5061ZM72.5061 27.88C72.5061 26.9733 72.3994 26.2867 72.1861 25.82C71.9728 25.34 71.6794 25.0067 71.3061 24.82C70.9461 24.6333 70.5328 24.5333 70.0661 24.52C69.2394 24.52 68.5994 24.8067 68.1461 25.38C67.6928 25.9533 67.4661 26.76 67.4661 27.8H66.6661C66.6661 26.7467 66.8194 25.8467 67.1261 25.1C67.4461 24.34 67.8928 23.76 68.4661 23.36C69.0528 22.96 69.7461 22.76 70.5461 22.76C71.3328 22.76 72.0128 22.92 72.5861 23.24C73.1594 23.56 73.6061 24.06 73.9261 24.74C74.2461 25.4067 74.3994 26.2867 74.3861 27.38V27.88H72.5061ZM-4.88 61L-5 59.16V51H-3.12V61H-4.88ZM-11.92 56.12V51H-10.02V56.12H-11.92ZM-10.02 56.12C-10.02 57.0133 -9.92 57.7 -9.72 58.18C-9.50667 58.66 -9.21333 58.9933 -8.84 59.18C-8.46667 59.3667 -8.04667 59.4667 -7.58 59.48C-6.76667 59.48 -6.13333 59.1933 -5.68 58.62C-5.22667 58.0467 -5 57.24 -5 56.2H-4.18C-4.18 57.2533 -4.34 58.16 -4.66 58.92C-4.96667 59.6667 -5.40667 60.24 -5.98 60.64C-6.55333 61.04 -7.25333 61.24 -8.08 61.24C-8.85333 61.24 -9.53333 61.08 -10.12 60.76C-10.6933 60.44 -11.14 59.94 -11.46 59.26C-11.7667 58.58 -11.92 57.7 -11.92 56.62V56.12H-10.02ZM-0.469063 61V51H1.31094L1.43094 52.84V61H-0.469063ZM6.45094 61V55.88H8.35094V61H6.45094ZM6.45094 55.88C6.45094 54.9733 6.34427 54.2867 6.13094 53.82C5.93094 53.34 5.64427 53.0067 5.27094 52.82C4.91094 52.6333 4.49094 52.5333 4.01094 52.52C3.1976 52.52 2.56427 52.8067 2.11094 53.38C1.6576 53.9533 1.43094 54.76 1.43094 55.8H0.610938C0.610938 54.7467 0.764271 53.8467 1.07094 53.1C1.39094 52.34 1.8376 51.76 2.41094 51.36C2.9976 50.96 3.69094 50.76 4.49094 50.76C5.2776 50.76 5.9576 50.92 6.53094 51.24C7.1176 51.56 7.56427 52.06 7.87094 52.74C8.19094 53.4067 8.35094 54.2867 8.35094 55.38V55.88H6.45094ZM10.7419 61V51H12.5219L12.6419 52.84V61H10.7419ZM17.6619 61V55.88H19.5619V61H17.6619ZM17.6619 55.88C17.6619 54.9733 17.5552 54.2867 17.3419 53.82C17.1419 53.34 16.8552 53.0067 16.4819 52.82C16.1219 52.6333 15.7019 52.5333 15.2219 52.52C14.4085 52.52 13.7752 52.8067 13.3219 53.38C12.8685 53.9533 12.6419 54.76 12.6419 55.8H11.8219C11.8219 54.7467 11.9752 53.8467 12.2819 53.1C12.6019 52.34 13.0485 51.76 13.6219 51.36C14.2085 50.96 14.9019 50.76 15.7019 50.76C16.4885 50.76 17.1685 50.92 17.7419 51.24C18.3285 51.56 18.7752 52.06 19.0819 52.74C19.4019 53.4067 19.5619 54.2867 19.5619 55.38V55.88H17.6619ZM26.3728 61.24C25.3995 61.24 24.5395 61.02 23.7928 60.58C23.0461 60.1267 22.4595 59.5067 22.0328 58.72C21.6061 57.9333 21.3928 57.0267 21.3928 56C21.3928 54.9733 21.6061 54.0667 22.0328 53.28C22.4595 52.4933 23.0461 51.88 23.7928 51.44C24.5528 50.9867 25.4195 50.76 26.3928 50.76C27.3128 50.76 28.1195 50.9933 28.8128 51.46C29.5061 51.9133 30.0461 52.5667 30.4328 53.42C30.8328 54.26 31.0328 55.2533 31.0328 56.4H22.9528L23.3128 56.1C23.3128 56.8067 23.4528 57.42 23.7328 57.94C24.0128 58.46 24.3928 58.86 24.8728 59.14C25.3528 59.4067 25.8995 59.54 26.5128 59.54C27.1795 59.54 27.7328 59.3867 28.1728 59.08C28.6261 58.76 28.9795 58.36 29.2328 57.88L30.8728 58.64C30.6061 59.16 30.2595 59.62 29.8328 60.02C29.4061 60.4067 28.8995 60.7067 28.3128 60.92C27.7395 61.1333 27.0928 61.24 26.3728 61.24ZM23.4328 55.2L23.0528 54.9H29.3728L29.0128 55.2C29.0128 54.6133 28.8928 54.1133 28.6528 53.7C28.4128 53.2733 28.0928 52.9533 27.6928 52.74C27.2928 52.5133 26.8461 52.4 26.3528 52.4C25.8728 52.4 25.4061 52.5133 24.9528 52.74C24.5128 52.9533 24.1461 53.2667 23.8528 53.68C23.5728 54.0933 23.4328 54.6 23.4328 55.2ZM37.4698 61.24C36.4698 61.24 35.5832 61.02 34.8098 60.58C34.0365 60.1267 33.4298 59.5067 32.9898 58.72C32.5632 57.9333 32.3498 57.0267 32.3498 56C32.3498 54.9733 32.5632 54.0667 32.9898 53.28C33.4298 52.4933 34.0298 51.88 34.7898 51.44C35.5632 50.9867 36.4432 50.76 37.4298 50.76C38.4032 50.76 39.2765 50.9867 40.0498 51.44C40.8365 51.8933 41.4232 52.54 41.8098 53.38L40.0898 54.1C39.8365 53.6067 39.4698 53.22 38.9898 52.94C38.5232 52.66 37.9832 52.52 37.3698 52.52C36.7698 52.52 36.2365 52.6667 35.7698 52.96C35.3032 53.2533 34.9365 53.6667 34.6698 54.2C34.4032 54.72 34.2698 55.32 34.2698 56C34.2698 56.68 34.4032 57.28 34.6698 57.8C34.9365 58.32 35.3098 58.7333 35.7898 59.04C36.2698 59.3333 36.8098 59.48 37.4098 59.48C38.0232 59.48 38.5698 59.3267 39.0498 59.02C39.5298 58.7 39.8898 58.2733 40.1298 57.74L41.8698 58.44C41.4832 59.32 40.8965 60.0067 40.1098 60.5C39.3365 60.9933 38.4565 61.24 37.4698 61.24ZM48.1697 61.24C47.1964 61.24 46.3364 61.02 45.5897 60.58C44.843 60.1267 44.2564 59.5067 43.8297 58.72C43.403 57.9333 43.1897 57.0267 43.1897 56C43.1897 54.9733 43.403 54.0667 43.8297 53.28C44.2564 52.4933 44.843 51.88 45.5897 51.44C46.3497 50.9867 47.2164 50.76 48.1897 50.76C49.1097 50.76 49.9164 50.9933 50.6097 51.46C51.303 51.9133 51.843 52.5667 52.2297 53.42C52.6297 54.26 52.8297 55.2533 52.8297 56.4H44.7497L45.1097 56.1C45.1097 56.8067 45.2497 57.42 45.5297 57.94C45.8097 58.46 46.1897 58.86 46.6697 59.14C47.1497 59.4067 47.6964 59.54 48.3097 59.54C48.9764 59.54 49.5297 59.3867 49.9697 59.08C50.423 58.76 50.7764 58.36 51.0297 57.88L52.6697 58.64C52.403 59.16 52.0564 59.62 51.6297 60.02C51.203 60.4067 50.6964 60.7067 50.1097 60.92C49.5364 61.1333 48.8897 61.24 48.1697 61.24ZM45.2297 55.2L44.8497 54.9H51.1697L50.8097 55.2C50.8097 54.6133 50.6897 54.1133 50.4497 53.7C50.2097 53.2733 49.8897 52.9533 49.4897 52.74C49.0897 52.5133 48.643 52.4 48.1497 52.4C47.6697 52.4 47.203 52.5133 46.7497 52.74C46.3097 52.9533 45.943 53.2667 45.6497 53.68C45.3697 54.0933 45.2297 54.6 45.2297 55.2ZM58.2867 61.24C57.5801 61.24 56.9467 61.1333 56.3867 60.92C55.8401 60.7067 55.3734 60.42 54.9867 60.06C54.6134 59.7 54.3334 59.2933 54.1467 58.84L55.7867 58.12C56.0001 58.5333 56.3201 58.8733 56.7467 59.14C57.1734 59.4067 57.6467 59.54 58.1667 59.54C58.7401 59.54 59.2134 59.4333 59.5867 59.22C59.9601 59.0067 60.1467 58.7067 60.1467 58.32C60.1467 57.9467 60.0067 57.6533 59.7267 57.44C59.4467 57.2267 59.0401 57.0533 58.5067 56.92L57.5667 56.68C56.6334 56.4267 55.9067 56.0467 55.3867 55.54C54.8801 55.0333 54.6267 54.46 54.6267 53.82C54.6267 52.8467 54.9401 52.0933 55.5667 51.56C56.1934 51.0267 57.1201 50.76 58.3467 50.76C58.9467 50.76 59.4934 50.8467 59.9867 51.02C60.4934 51.1933 60.9201 51.44 61.2667 51.76C61.6267 52.08 61.8801 52.46 62.0267 52.9L60.4267 53.62C60.2667 53.22 59.9934 52.9267 59.6067 52.74C59.2201 52.54 58.7667 52.44 58.2467 52.44C57.7134 52.44 57.2934 52.56 56.9867 52.8C56.6801 53.0267 56.5267 53.3467 56.5267 53.76C56.5267 53.9867 56.6534 54.2067 56.9067 54.42C57.1734 54.62 57.5601 54.7867 58.0667 54.92L59.1467 55.18C59.8001 55.34 60.3401 55.5867 60.7667 55.92C61.1934 56.24 61.5134 56.6067 61.7267 57.02C61.9401 57.42 62.0467 57.84 62.0467 58.28C62.0467 58.88 61.8801 59.4067 61.5467 59.86C61.2267 60.3 60.7801 60.64 60.2067 60.88C59.6467 61.12 59.0067 61.24 58.2867 61.24ZM67.5836 61.24C66.8769 61.24 66.2436 61.1333 65.6836 60.92C65.1369 60.7067 64.6703 60.42 64.2836 60.06C63.9103 59.7 63.6303 59.2933 63.4436 58.84L65.0836 58.12C65.2969 58.5333 65.6169 58.8733 66.0436 59.14C66.4703 59.4067 66.9436 59.54 67.4636 59.54C68.0369 59.54 68.5103 59.4333 68.8836 59.22C69.2569 59.0067 69.4436 58.7067 69.4436 58.32C69.4436 57.9467 69.3036 57.6533 69.0236 57.44C68.7436 57.2267 68.3369 57.0533 67.8036 56.92L66.8636 56.68C65.9303 56.4267 65.2036 56.0467 64.6836 55.54C64.1769 55.0333 63.9236 54.46 63.9236 53.82C63.9236 52.8467 64.2369 52.0933 64.8636 51.56C65.4903 51.0267 66.4169 50.76 67.6436 50.76C68.2436 50.76 68.7903 50.8467 69.2836 51.02C69.7903 51.1933 70.2169 51.44 70.5636 51.76C70.9236 52.08 71.1769 52.46 71.3236 52.9L69.7236 53.62C69.5636 53.22 69.2903 52.9267 68.9036 52.74C68.5169 52.54 68.0636 52.44 67.5436 52.44C67.0103 52.44 66.5903 52.56 66.2836 52.8C65.9769 53.0267 65.8236 53.3467 65.8236 53.76C65.8236 53.9867 65.9503 54.2067 66.2036 54.42C66.4703 54.62 66.8569 54.7867 67.3636 54.92L68.4436 55.18C69.0969 55.34 69.6369 55.5867 70.0636 55.92C70.4903 56.24 70.8103 56.6067 71.0236 57.02C71.2369 57.42 71.3436 57.84 71.3436 58.28C71.3436 58.88 71.1769 59.4067 70.8436 59.86C70.5236 60.3 70.0769 60.64 69.5036 60.88C68.9436 61.12 68.3036 61.24 67.5836 61.24ZM79.46 61L79.38 59.26V55.78C79.38 55.0467 79.2933 54.4333 79.12 53.94C78.96 53.4467 78.7067 53.0733 78.36 52.82C78.0267 52.5667 77.58 52.44 77.02 52.44C76.5 52.44 76.0467 52.5467 75.66 52.76C75.2867 52.9733 74.9733 53.3067 74.72 53.76L73.04 53.12C73.28 52.6667 73.58 52.2667 73.94 51.92C74.3 51.56 74.7333 51.28 75.24 51.08C75.7467 50.8667 76.34 50.76 77.02 50.76C77.9667 50.76 78.7533 50.9467 79.38 51.32C80.0067 51.6933 80.4733 52.2333 80.78 52.94C81.1 53.6467 81.2533 54.52 81.24 55.56L81.22 61H79.46ZM76.52 61.24C75.3333 61.24 74.4067 60.9733 73.74 60.44C73.0867 59.8933 72.76 59.14 72.76 58.18C72.76 57.1533 73.1 56.3733 73.78 55.84C74.4733 55.2933 75.4333 55.02 76.66 55.02H79.44V56.52H77.18C76.26 56.52 75.6133 56.6667 75.24 56.96C74.8667 57.24 74.68 57.6333 74.68 58.14C74.68 58.6067 74.8533 58.9733 75.2 59.24C75.56 59.4933 76.0533 59.62 76.68 59.62C77.2267 59.62 77.7 59.5067 78.1 59.28C78.5 59.04 78.8133 58.7067 79.04 58.28C79.2667 57.8533 79.38 57.3667 79.38 56.82H80.04C80.04 58.18 79.7467 59.26 79.16 60.06C78.5867 60.8467 77.7067 61.24 76.52 61.24ZM84.7925 55.62C84.7925 54.54 84.9992 53.66 85.4125 52.98C85.8258 52.3 86.3592 51.7933 87.0125 51.46C87.6658 51.1267 88.3525 50.96 89.0725 50.96V52.76C88.4725 52.76 87.8992 52.8533 87.3525 53.04C86.8192 53.2133 86.3792 53.5067 86.0325 53.92C85.6992 54.32 85.5325 54.8667 85.5325 55.56L84.7925 55.62ZM83.6325 61V51H85.5325V61H83.6325ZM91.8252 65.24C91.5318 65.24 91.2052 65.1867 90.8452 65.08C90.4985 64.9733 90.1385 64.8333 89.7652 64.66L90.4652 63.1C90.7585 63.2333 91.0118 63.3333 91.2252 63.4C91.4518 63.4667 91.6318 63.5 91.7652 63.5C92.0985 63.5 92.3785 63.4067 92.6052 63.22C92.8452 63.0333 93.0385 62.7733 93.1852 62.44L94.3452 59.7L97.9052 51H99.9452L95.2052 62.24C94.9518 62.8533 94.6852 63.3867 94.4052 63.84C94.1252 64.2933 93.7785 64.64 93.3652 64.88C92.9652 65.12 92.4518 65.24 91.8252 65.24ZM93.8252 61L89.4452 51H91.4652L95.0852 59.68L95.6652 61H93.8252ZM110.849 61.24C109.849 61.24 108.962 61.02 108.189 60.58C107.415 60.1267 106.809 59.5067 106.369 58.72C105.942 57.9333 105.729 57.0267 105.729 56C105.729 54.9733 105.942 54.0667 106.369 53.28C106.809 52.4933 107.409 51.88 108.169 51.44C108.942 50.9867 109.822 50.76 110.809 50.76C111.782 50.76 112.655 50.9867 113.429 51.44C114.215 51.8933 114.802 52.54 115.189 53.38L113.469 54.1C113.215 53.6067 112.849 53.22 112.369 52.94C111.902 52.66 111.362 52.52 110.749 52.52C110.149 52.52 109.615 52.6667 109.149 52.96C108.682 53.2533 108.315 53.6667 108.049 54.2C107.782 54.72 107.649 55.32 107.649 56C107.649 56.68 107.782 57.28 108.049 57.8C108.315 58.32 108.689 58.7333 109.169 59.04C109.649 59.3333 110.189 59.48 110.789 59.48C111.402 59.48 111.949 59.3267 112.429 59.02C112.909 58.7 113.269 58.2733 113.509 57.74L115.249 58.44C114.862 59.32 114.275 60.0067 113.489 60.5C112.715 60.9933 111.835 61.24 110.849 61.24ZM121.649 61.24C120.649 61.24 119.769 61.02 119.009 60.58C118.249 60.1267 117.649 59.5067 117.209 58.72C116.782 57.9333 116.569 57.0267 116.569 56C116.569 54.9733 116.782 54.0667 117.209 53.28C117.635 52.4933 118.229 51.88 118.989 51.44C119.749 50.9867 120.622 50.76 121.609 50.76C122.595 50.76 123.469 50.9867 124.229 51.44C124.989 51.88 125.582 52.4933 126.009 53.28C126.435 54.0667 126.649 54.9733 126.649 56C126.649 57.0267 126.435 57.9333 126.009 58.72C125.582 59.5067 124.989 60.1267 124.229 60.58C123.482 61.02 122.622 61.24 121.649 61.24ZM121.649 59.5C122.249 59.5 122.782 59.3533 123.249 59.06C123.715 58.7533 124.075 58.34 124.329 57.82C124.595 57.3 124.729 56.6933 124.729 56C124.729 55.3067 124.595 54.7 124.329 54.18C124.075 53.66 123.709 53.2533 123.229 52.96C122.749 52.6533 122.209 52.5 121.609 52.5C120.995 52.5 120.455 52.6533 119.989 52.96C119.522 53.2533 119.155 53.66 118.889 54.18C118.622 54.7 118.489 55.3067 118.489 56C118.489 56.6933 118.622 57.3 118.889 57.82C119.155 58.34 119.529 58.7533 120.009 59.06C120.489 59.3533 121.035 59.5 121.649 59.5ZM128.73 61V51H130.51L130.63 52.84V61H128.73ZM135.65 61V55.88H137.55V61H135.65ZM135.65 55.88C135.65 54.9733 135.543 54.2867 135.33 53.82C135.13 53.34 134.843 53.0067 134.47 52.82C134.11 52.6333 133.69 52.5333 133.21 52.52C132.397 52.52 131.763 52.8067 131.31 53.38C130.857 53.9533 130.63 54.76 130.63 55.8H129.81C129.81 54.7467 129.963 53.8467 130.27 53.1C130.59 52.34 131.037 51.76 131.61 51.36C132.197 50.96 132.89 50.76 133.69 50.76C134.477 50.76 135.157 50.92 135.73 51.24C136.317 51.56 136.763 52.06 137.07 52.74C137.39 53.4067 137.55 54.2867 137.55 55.38V55.88H135.65ZM143.801 61.24C142.801 61.24 142.028 60.9867 141.481 60.48C140.934 59.96 140.661 59.22 140.661 58.26V47.88H142.561V57.98C142.561 58.4733 142.681 58.8533 142.921 59.12C143.174 59.3733 143.534 59.5 144.001 59.5C144.134 59.5 144.281 59.4733 144.441 59.42C144.601 59.3667 144.794 59.26 145.021 59.1L145.741 60.58C145.394 60.8067 145.061 60.9733 144.741 61.08C144.434 61.1867 144.121 61.24 143.801 61.24ZM138.961 52.64V51H145.401V52.64H138.961ZM151.959 61.24C150.985 61.24 150.125 61.02 149.379 60.58C148.632 60.1267 148.045 59.5067 147.619 58.72C147.192 57.9333 146.979 57.0267 146.979 56C146.979 54.9733 147.192 54.0667 147.619 53.28C148.045 52.4933 148.632 51.88 149.379 51.44C150.139 50.9867 151.005 50.76 151.979 50.76C152.899 50.76 153.705 50.9933 154.399 51.46C155.092 51.9133 155.632 52.5667 156.019 53.42C156.419 54.26 156.619 55.2533 156.619 56.4H148.539L148.899 56.1C148.899 56.8067 149.039 57.42 149.319 57.94C149.599 58.46 149.979 58.86 150.459 59.14C150.939 59.4067 151.485 59.54 152.099 59.54C152.765 59.54 153.319 59.3867 153.759 59.08C154.212 58.76 154.565 58.36 154.819 57.88L156.459 58.64C156.192 59.16 155.845 59.62 155.419 60.02C154.992 60.4067 154.485 60.7067 153.899 60.92C153.325 61.1333 152.679 61.24 151.959 61.24ZM149.019 55.2L148.639 54.9H154.959L154.599 55.2C154.599 54.6133 154.479 54.1133 154.239 53.7C153.999 53.2733 153.679 52.9533 153.279 52.74C152.879 52.5133 152.432 52.4 151.939 52.4C151.459 52.4 150.992 52.5133 150.539 52.74C150.099 52.9533 149.732 53.2667 149.439 53.68C149.159 54.0933 149.019 54.6 149.019 55.2ZM158.496 61V51H160.276L160.396 52.84V61H158.496ZM165.416 61V55.88H167.316V61H165.416ZM165.416 55.88C165.416 54.9733 165.309 54.2867 165.096 53.82C164.896 53.34 164.609 53.0067 164.236 52.82C163.876 52.6333 163.456 52.5333 162.976 52.52C162.162 52.52 161.529 52.8067 161.076 53.38C160.622 53.9533 160.396 54.76 160.396 55.8H159.576C159.576 54.7467 159.729 53.8467 160.036 53.1C160.356 52.34 160.802 51.76 161.376 51.36C161.962 50.96 162.656 50.76 163.456 50.76C164.242 50.76 164.922 50.92 165.496 51.24C166.082 51.56 166.529 52.06 166.836 52.74C167.156 53.4067 167.316 54.2867 167.316 55.38V55.88H165.416ZM173.567 61.24C172.567 61.24 171.793 60.9867 171.247 60.48C170.7 59.96 170.427 59.22 170.427 58.26V47.88H172.327V57.98C172.327 58.4733 172.447 58.8533 172.687 59.12C172.94 59.3733 173.3 59.5 173.767 59.5C173.9 59.5 174.047 59.4733 174.207 59.42C174.367 59.3667 174.56 59.26 174.787 59.1L175.507 60.58C175.16 60.8067 174.827 60.9733 174.507 61.08C174.2 61.1867 173.887 61.24 173.567 61.24ZM168.727 52.64V51H175.167V52.64H168.727Z" fill="white" fill-opacity="0.56"/>
</svg>
