<svg width="36" height="36" viewBox="0 0 36 36" fill="none" xmlns="http://www.w3.org/2000/svg">
<path d="M25.4245 17.9246C28.102 15.2472 29.0313 11.4834 28.2122 8.05194L31.9545 6.44805C32.3354 6.28488 32.7762 6.46124 32.9394 6.84197C32.9793 6.93533 33 7.03584 33 7.13741V28.5L22.5 33L13.5 28.5L4.04544 32.552C3.66471 32.7152 3.22382 32.5388 3.06065 32.1581C3.02063 32.0648 3 31.9641 3 31.8626V10.5L7.69338 8.48856C7.05034 11.7995 8.01101 15.3603 10.5754 17.9246L18 25.3493L25.4245 17.9246ZM23.3032 15.8033L18 21.1067L12.6967 15.8033C9.76776 12.8744 9.76776 8.12564 12.6967 5.19671C15.6257 2.26776 20.3743 2.26776 23.3032 5.19671C26.2323 8.12564 26.2323 12.8744 23.3032 15.8033Z" fill="white" fill-opacity="0.56"/>
</svg>
