<svg width="32" height="32" viewBox="0 0 32 32" fill="none" xmlns="http://www.w3.org/2000/svg">
<path d="M28 20.3235V28.0109C28 28.7413 27.4068 29.3333 26.6755 29.3333H5.32453C4.59301 29.3333 4 28.7348 4 27.99V12H12C12.7364 12 13.3333 11.403 13.3333 10.6667V2.66667H26.6689C27.4041 2.66667 28 3.27375 28 3.98907V9.00982L16.0016 21.0083L15.9933 26.66L21.6552 26.6683L28 20.3235ZM29.0376 11.7435L30.9232 13.6291L20.5523 24L18.6639 23.9972L18.6667 22.1144L29.0376 11.7435ZM4 9.33334L10.6667 2.67091V9.33334H4Z" fill="#EAF27C"/>
</svg>
