<svg width="36" height="36" viewBox="0 0 36 36" fill="none" xmlns="http://www.w3.org/2000/svg">
<path d="M3 33C3 26.3725 8.37258 21 15 21C21.6275 21 27 26.3725 27 33H3ZM15 19.5C10.0275 19.5 6 15.4725 6 10.5C6 5.5275 10.0275 1.5 15 1.5C19.9725 1.5 24 5.5275 24 10.5C24 15.4725 19.9725 19.5 15 19.5ZM26.0442 22.8498C30.6723 24.0326 34.1519 28.0853 34.4754 33H30C30 29.0853 28.5003 25.5208 26.0442 22.8498ZM23.0102 19.4353C25.4592 17.2383 27 14.0491 27 10.5C27 8.37399 26.4471 6.37711 25.4773 4.6453C28.9129 5.33096 31.5 8.36198 31.5 12C31.5 16.1438 28.1437 19.5 24 19.5C23.6644 19.5 23.334 19.4779 23.0102 19.4353Z" fill="white" fill-opacity="0.56"/>
</svg>
