<svg width="48" height="48" viewBox="0 0 48 48" fill="none" xmlns="http://www.w3.org/2000/svg">
<path d="M12.1127 16.601C12.2399 16.3971 12.3722 16.1967 12.5094 16H35.4906C35.6278 16.1967 35.76 16.3971 35.8872 16.601L39.9282 14.2679L41.9282 17.732L37.5024 20.2872C37.8268 21.4696 38 22.7146 38 24V26H44V30H38C38 31.9068 37.6188 33.7246 36.9284 35.3814L41.9282 38.268L39.9282 41.732L34.8766 38.8154C32.7066 41.4894 29.5706 43.3474 26 43.8582V28H22V43.8582C18.4293 43.3474 15.2933 41.4894 13.1234 38.8154L8.0718 41.732L6.0718 38.268L11.0716 35.3814C10.3812 33.7246 10 31.9068 10 30H4V26H10V24C10 22.7146 10.1732 21.4696 10.4976 20.2872L6.0718 17.732L8.0718 14.2679L12.1127 16.601ZM16 12C16 7.58172 19.5817 4 24 4C28.4182 4 32 7.58172 32 12H16Z" fill="white" fill-opacity="0.76"/>
</svg>
