<svg width="48" height="48" viewBox="0 0 48 48" fill="none" xmlns="http://www.w3.org/2000/svg">
<path d="M19.908 4.4212C22.5752 3.86288 25.3614 3.84526 28.0898 4.4157C28.4438 6.7348 29.8096 8.87784 31.9994 10.1421C34.189 11.4063 36.728 11.5177 38.9132 10.6646C40.7716 12.7424 42.1494 15.1641 42.9994 17.753C41.1704 19.2192 39.9994 21.472 39.9994 23.9984C39.9994 26.5264 41.1718 28.7804 43.0026 30.2464C42.58 31.5272 42.0208 32.7844 41.3198 33.9984C40.6188 35.2126 39.8098 36.3254 38.9118 37.3318C36.7268 36.4792 34.1886 36.591 31.9994 37.8548C29.8114 39.118 28.446 41.2588 28.0906 43.5758C25.4236 44.134 22.6374 44.1516 19.9089 43.5812C19.555 41.2622 18.189 39.119 15.9993 37.8548C13.8097 36.5906 11.2708 36.4792 9.08543 37.3324C7.22713 35.2546 5.84931 32.8328 4.99927 30.2438C6.82823 28.7778 7.99935 26.5248 7.99935 23.9984C7.99935 21.4706 6.82687 19.2165 4.99609 17.7505C5.41865 16.4696 5.97787 15.2126 6.67883 13.9985C7.37981 12.7843 8.18885 11.6715 9.08681 10.6651C11.2719 11.5176 13.8101 11.406 15.9993 10.1421C18.1873 8.87884 19.5528 6.7382 19.908 4.4212ZM23.9994 29.9984C27.313 29.9984 29.9994 27.3122 29.9994 23.9984C29.9994 20.6848 27.313 17.9985 23.9994 17.9985C20.6856 17.9985 17.9993 20.6848 17.9993 23.9984C17.9993 27.3122 20.6856 29.9984 23.9994 29.9984Z" fill="white" fill-opacity="0.76"/>
</svg>
