<svg width="28" height="28" viewBox="0 0 28 28" fill="none" xmlns="http://www.w3.org/2000/svg">
<path d="M3.10611 0.00714344C0.718811 -0.106793 0.0434551 1.17025 0.00419044 1.82301C-0.0350742 2.19093 0.184809 3.09768 1.37846 3.7813C2.87052 4.63582 17.5948 10.1902 17.5948 14C17.5948 17.8098 2.87052 23.3642 1.37846 24.2187C0.184809 24.9023 -0.0350742 25.8091 0.00419044 26.177C0.0434551 26.8298 0.718811 28.1068 3.10611 27.9929C6.09024 27.8504 12.0585 28.0285 19.99 23.2218C26.3352 19.3764 27.9738 15.4717 28 14C27.9738 12.5283 26.3352 8.62361 19.99 4.77825C12.0585 -0.0284605 6.09024 0.149564 3.10611 0.00714344Z" fill="#EAF27C"/>
</svg>
